<svg width="67" height="72" viewBox="0 0 67 72" fill="none" xmlns="http://www.w3.org/2000/svg">
<g clip-path="url(#clip0_376_48)">
<path fill-rule="evenodd" clip-rule="evenodd" d="M44.3162 67.1839L34.5999 47.2962C34.5806 47.3079 29.1525 50.1352 28.9042 50.2552C22.7228 53.4338 10.142 27.3676 16.1854 23.9315L21.9308 20.9286L12.2945 0.976562L6.48286 4.01752C2.00688 6.49067 0.141424 11.7062 0.16626 18.1921C0.240768 38.3929 18.6856 70.9127 33.8658 71.217C35.4526 71.2492 37.0034 70.9302 38.4936 70.2073C38.8275 70.0463 44.2941 67.1956 44.3162 67.1839ZM55.3544 50.7323H52.5949V12.6838H55.3544V50.7323ZM49.8353 44.8787H47.0758V18.5374H49.8353V44.8787ZM60.8735 41.9519H58.114V21.4642H60.8735V41.9519ZM44.3162 39.0251H41.5567V24.391H44.3162V39.0251ZM38.7971 36.0983H36.0376V27.3178H38.7971V36.0983ZM66.3926 36.0983H63.633V27.3178H66.3926V36.0983ZM33.278 33.1715H30.5185V30.2446H33.278V33.1715Z" fill="#7462A7"/>
</g>
<defs>
<clipPath id="clip0_376_48">
<rect width="66.2291" height="70.2434" fill="white" transform="translate(0.166016 0.976562)"/>
</clipPath>
</defs>
</svg>
