<svg width="235" height="72" viewBox="0 0 235 72" fill="none" xmlns="http://www.w3.org/2000/svg">
<path d="M0.310547 71.3971L13.7256 64.1741L0.762804 56.1678L0.310547 71.3971ZM19.5341 53.9751C24.1057 51.216 29.3894 48.5434 35.2635 45.9624L34.2019 43.5464C28.2516 46.1609 22.8622 48.8842 18.1705 51.7157L19.5341 53.9751ZM51.7673 39.4681C57.1288 37.5621 62.7821 35.7185 68.664 33.939L67.8998 31.4131C61.9835 33.203 56.2899 35.0596 50.8834 36.9816L51.7673 39.4681ZM85.7766 29.0991C91.4093 27.6062 97.1776 26.1668 103.035 24.7819L102.428 22.2138C96.5496 23.6036 90.7583 25.0487 85.1005 26.5483L85.7766 29.0991ZM120.402 20.8828C126.193 19.6473 132.024 18.4639 137.853 17.3336L137.35 14.7429C131.506 15.8761 125.659 17.0628 119.851 18.3019L120.402 20.8828ZM155.367 14.0891C161.283 13.0425 167.152 12.0523 172.93 11.1196L172.509 8.5144C166.719 9.44912 160.837 10.4415 154.907 11.4905L155.367 14.0891ZM190.536 8.40744C196.605 7.51695 202.507 6.69666 208.183 5.94779L207.838 3.33151C202.15 4.08203 196.235 4.90408 190.153 5.79644L190.536 8.40744ZM225.849 3.75628C228.893 3.40392 231.833 3.07738 234.657 2.77692L234.378 0.152771C231.545 0.454127 228.597 0.78157 225.545 1.13484L225.849 3.75628Z" fill="#AC9CD7"/>
</svg>
