<svg width="235" height="72" viewBox="0 0 235 72" fill="none" xmlns="http://www.w3.org/2000/svg">
<path d="M234.451 71.3971L221.036 64.1741L233.999 56.1678L234.451 71.3971ZM215.228 53.9751C210.656 51.216 205.372 48.5434 199.498 45.9624L200.56 43.5464C206.51 46.1609 211.9 48.8842 216.591 51.7157L215.228 53.9751ZM182.994 39.4681C177.633 37.5621 171.98 35.7185 166.098 33.939L166.862 31.4131C172.778 33.203 178.472 35.0596 183.878 36.9816L182.994 39.4681ZM148.985 29.0991C143.352 27.6062 137.584 26.1668 131.727 24.7819L132.334 22.2138C138.212 23.6036 144.003 25.0487 149.661 26.5483L148.985 29.0991ZM114.36 20.8828C108.569 19.6473 102.738 18.4639 96.9091 17.3336L97.4115 14.7429C103.255 15.8761 109.102 17.0628 114.91 18.3019L114.36 20.8828ZM79.3952 14.0891C73.4789 13.0425 67.6093 12.0523 61.8317 11.1196L62.2523 8.5144C68.0424 9.44912 73.925 10.4415 79.8549 11.4905L79.3952 14.0891ZM44.2254 8.40744C38.1565 7.51695 32.2545 6.69666 26.5789 5.94779L26.9241 3.33151C32.6122 4.08203 38.5269 4.90408 44.6085 5.79644L44.2254 8.40744ZM8.91293 3.75628C5.8692 3.40392 2.92888 3.07738 0.104507 2.77692L0.383682 0.152771C3.21642 0.454127 6.16486 0.78157 9.2164 1.13484L8.91293 3.75628Z" fill="#AC9CD7"/>
</svg>
