<svg width="84" height="87" viewBox="0 0 84 87" fill="none" xmlns="http://www.w3.org/2000/svg">
<path d="M83.5663 44.9042C83.5663 39.4172 82.4855 33.9839 80.3857 28.9145C78.2859 23.8451 75.2082 19.239 71.3283 15.3591C67.4483 11.4792 62.8422 8.40144 57.7728 6.30164C52.7035 4.20185 47.2702 3.12109 41.7831 3.12109V44.9042H83.5663Z" fill="#F299A0"/>
<path d="M41.7831 3.12124C36.2961 3.12124 30.8628 4.20199 25.7934 6.30179C20.7241 8.40159 16.1179 11.4793 12.238 15.3592C8.35807 19.2392 5.28035 23.8453 3.18055 28.9147C1.08075 33.984 -2.39846e-07 39.4173 0 44.9044H41.7831L41.7831 3.12124Z" fill="#FAD9DB"/>
<path d="M0.000144958 42.3975C0.000144958 47.8846 1.08089 53.3179 3.18069 58.3872C5.28049 63.4566 8.35822 68.0627 12.2381 71.9427C16.1181 75.8226 20.7242 78.9003 25.7936 81.0001C30.8629 83.0999 36.2962 84.1807 41.7833 84.1807V42.3975H0.000144958Z" fill="#DE0012"/>
<path d="M41.7833 84.1805C47.2703 84.1805 52.7036 83.0998 57.773 81C62.8424 78.9002 67.4485 75.8224 71.3284 71.9425C75.2083 68.0626 78.2861 63.4565 80.3859 58.3871C82.4857 53.3177 83.5664 47.8844 83.5664 42.3974L41.7833 42.3974L41.7833 84.1805Z" fill="#E43341"/>
</svg>
