<svg width="84" height="87" viewBox="0 0 84 87" fill="none" xmlns="http://www.w3.org/2000/svg">
<path d="M83.9999 44.9042C83.9999 39.4172 82.9191 33.9839 80.8193 28.9145C78.7195 23.8451 75.6418 19.239 71.7619 15.3591C67.8819 11.4792 63.2758 8.40144 58.2064 6.30164C53.1371 4.20185 47.7038 3.12109 42.2167 3.12109V44.9042H83.9999Z" fill="#A1D2B2"/>
<path d="M42.2167 3.12124C36.7297 3.12124 31.2964 4.20199 26.227 6.30179C21.1576 8.40159 16.5515 11.4793 12.6716 15.3592C8.79167 19.2392 5.71394 23.8453 3.61414 28.9147C1.51435 33.984 0.433594 39.4173 0.433594 44.9044H42.2167L42.2167 3.12124Z" fill="#DCEEE2"/>
<path d="M0.433739 42.3975C0.433739 47.8846 1.51449 53.3179 3.61429 58.3872C5.71409 63.4566 8.79181 68.0627 12.6717 71.9427C16.5517 75.8226 21.1578 78.9003 26.2272 81.0001C31.2965 83.0999 36.7298 84.1807 42.2169 84.1807V42.3975H0.433739Z" fill="#16903F"/>
<path d="M42.2169 84.1805C47.7039 84.1805 53.1372 83.0998 58.2066 81C63.2759 78.9002 67.8821 75.8224 71.762 71.9425C75.6419 68.0626 78.7197 63.4565 80.8194 58.3871C82.9192 53.3177 84 47.8844 84 42.3974L42.2169 42.3974L42.2169 84.1805Z" fill="#44A665"/>
</svg>
