<svg width="84" height="87" viewBox="0 0 84 87" fill="none" xmlns="http://www.w3.org/2000/svg">
<path d="M83.5663 44.5068C83.5663 39.0197 82.4855 33.5864 80.3857 28.5171C78.2859 23.4477 75.2082 18.8416 71.3283 14.9616C67.4483 11.0817 62.8422 8.00398 57.7728 5.90418C52.7035 3.80438 47.2702 2.72363 41.7831 2.72363V44.5068H83.5663Z" fill="#DFEFFA"/>
<path d="M41.7831 2.72378C36.2961 2.72378 30.8628 3.80453 25.7934 5.90433C20.7241 8.00413 16.1179 11.0818 12.238 14.9618C8.35807 18.8417 5.28035 23.4478 3.18055 28.5172C1.08075 33.5866 -2.39846e-07 39.0199 0 44.5069H41.7831L41.7831 2.72378Z" fill="#F3F9FD"/>
<path d="M0.000144958 42.0001C0.000144958 47.4871 1.08089 52.9204 3.18069 57.9898C5.28049 63.0591 8.35822 67.6653 12.2381 71.5452C16.1181 75.4251 20.7242 78.5029 25.7936 80.6027C30.8629 82.7025 36.2962 83.7832 41.7833 83.7832V42.0001H0.000144958Z" fill="#B0D8F2"/>
<path d="M41.7833 83.7831C47.2703 83.7831 52.7036 82.7023 57.773 80.6025C62.8424 78.5027 67.4485 75.425 71.3284 71.5451C75.2083 67.6651 78.2861 63.059 80.3859 57.9896C82.4857 52.9203 83.5664 47.487 83.5664 41.9999L41.7833 41.9999L41.7833 83.7831Z" fill="#BFDFF4"/>
</svg>
