<svg width="84" height="87" viewBox="0 0 84 87" fill="none" xmlns="http://www.w3.org/2000/svg">
<path d="M83.7108 44.5068C83.7108 39.0197 82.63 33.5864 80.5302 28.5171C78.4304 23.4477 75.3527 18.8416 71.4728 14.9616C67.5929 11.0817 62.9867 8.00398 57.9174 5.90418C52.848 3.80438 47.4147 2.72363 41.9277 2.72363V44.5068H83.7108Z" fill="#FFE0EE"/>
<path d="M41.9277 2.72378C36.4406 2.72378 31.0073 3.80453 25.938 5.90433C20.8686 8.00413 16.2624 11.0818 12.3825 14.9618C8.5026 18.8417 5.42488 23.4478 3.32508 28.5172C1.22528 33.5866 0.144531 39.0199 0.144531 44.5069H41.9277L41.9277 2.72378Z" fill="#FFF3F9"/>
<path d="M0.144676 42.0001C0.144676 47.4871 1.22543 52.9204 3.32523 57.9898C5.42503 63.0591 8.50275 67.6653 12.3827 71.5452C16.2626 75.4251 20.8687 78.5029 25.9381 80.6027C31.0075 82.7025 36.4408 83.7832 41.9278 83.7832V42.0001H0.144676Z" fill="#FEB1D5"/>
<path d="M41.9278 83.7831C47.4148 83.7831 52.8482 82.7023 57.9175 80.6025C62.9869 78.5027 67.593 75.425 71.4729 71.5451C75.3529 67.6651 78.4306 63.059 80.5304 57.9896C82.6302 52.9203 83.7109 47.487 83.7109 41.9999L41.9278 41.9999L41.9278 83.7831Z" fill="#FEC0DD"/>
</svg>
