<svg width="84" height="87" viewBox="0 0 84 87" fill="none" xmlns="http://www.w3.org/2000/svg">
<path d="M83.9999 44.5068C83.9999 39.0197 82.9191 33.5864 80.8193 28.5171C78.7195 23.4477 75.6418 18.8416 71.7619 14.9616C67.8819 11.0817 63.2758 8.00398 58.2064 5.90418C53.1371 3.80438 47.7038 2.72363 42.2167 2.72363V44.5068H83.9999Z" fill="#999999"/>
<path d="M42.2167 2.72378C36.7297 2.72378 31.2964 3.80453 26.227 5.90433C21.1576 8.00413 16.5515 11.0818 12.6716 14.9618C8.79167 18.8417 5.71394 23.4478 3.61414 28.5172C1.51435 33.5866 0.433594 39.0199 0.433594 44.5069H42.2167L42.2167 2.72378Z" fill="#D9D9D9"/>
<path d="M0.433739 42.0001C0.433739 47.4871 1.51449 52.9204 3.61429 57.9898C5.71409 63.0591 8.79181 67.6653 12.6717 71.5452C16.5517 75.4251 21.1578 78.5029 26.2272 80.6027C31.2965 82.7025 36.7298 83.7832 42.2169 83.7832V42.0001H0.433739Z" fill="black"/>
<path d="M42.2169 83.7831C47.7039 83.7831 53.1372 82.7023 58.2066 80.6025C63.2759 78.5027 67.8821 75.425 71.762 71.5451C75.6419 67.6651 78.7197 63.059 80.8194 57.9896C82.9192 52.9203 84 47.487 84 41.9999L42.2169 41.9999L42.2169 83.7831Z" fill="#333333"/>
</svg>
