<svg width="84" height="87" viewBox="0 0 84 87" fill="none" xmlns="http://www.w3.org/2000/svg">
<path d="M83.8553 44.9042C83.8553 39.4172 82.7746 33.9839 80.6748 28.9145C78.575 23.8451 75.4973 19.239 71.6173 15.3591C67.7374 11.4792 63.1313 8.40144 58.0619 6.30164C52.9925 4.20185 47.5592 3.12109 42.0722 3.12109V44.9042H83.8553Z" fill="#FBF5B3"/>
<path d="M42.0722 3.12124C36.5852 3.12124 31.1518 4.20199 26.0825 6.30179C21.0131 8.40159 16.407 11.4793 12.5271 15.3592C8.64713 19.2392 5.56941 23.8453 3.46961 28.9147C1.36981 33.984 0.289062 39.4173 0.289063 44.9044H42.0722L42.0722 3.12124Z" fill="#FEFBE2"/>
<path d="M0.289207 42.3975C0.289207 47.8846 1.36996 53.3179 3.46976 58.3872C5.56956 63.4566 8.64728 68.0627 12.5272 71.9427C16.4071 75.8226 21.0133 78.9003 26.0826 81.0001C31.152 83.0999 36.5853 84.1807 42.0723 84.1807V42.3975H0.289207Z" fill="#F6E541"/>
<path d="M42.0723 84.1805C47.5594 84.1805 52.9927 83.0998 58.062 81C63.1314 78.9002 67.7376 75.8224 71.6175 71.9425C75.4974 68.0626 78.5751 63.4565 80.6749 58.3871C82.7747 53.3177 83.8555 47.8844 83.8555 42.3974L42.0723 42.3974L42.0723 84.1805Z" fill="#F7EA67"/>
</svg>
