<svg width="84" height="87" viewBox="0 0 84 87" fill="none" xmlns="http://www.w3.org/2000/svg">
<path d="M83.7108 44.9042C83.7108 39.4172 82.63 33.9839 80.5302 28.9145C78.4304 23.8451 75.3527 19.239 71.4728 15.3591C67.5929 11.4792 62.9867 8.40144 57.9174 6.30164C52.848 4.20185 47.4147 3.12109 41.9277 3.12109V44.9042H83.7108Z" fill="#FFCB8F"/>
<path d="M41.9277 3.12124C36.4406 3.12124 31.0073 4.20199 25.938 6.30179C20.8686 8.40159 16.2624 11.4793 12.3825 15.3592C8.5026 19.2392 5.42488 23.8453 3.32508 28.9147C1.22528 33.984 0.144531 39.4173 0.144531 44.9044H41.9277L41.9277 3.12124Z" fill="#FFE7CB"/>
<path d="M0.144676 42.3975C0.144676 47.8846 1.22543 53.3179 3.32523 58.3872C5.42503 63.4566 8.50275 68.0627 12.3827 71.9427C16.2626 75.8226 20.8687 78.9003 25.9381 81.0001C31.0075 83.0999 36.4408 84.1807 41.9278 84.1807V42.3975H0.144676Z" fill="#FF9B29"/>
<path d="M41.9278 84.1805C47.4148 84.1805 52.8482 83.0998 57.9175 81C62.9869 78.9002 67.593 75.8224 71.4729 71.9425C75.3529 68.0626 78.4306 63.4565 80.5304 58.3871C82.6302 53.3177 83.7109 47.8844 83.7109 42.3974L41.9278 42.3974L41.9278 84.1805Z" fill="#FFAB4B"/>
</svg>
