<svg width="84" height="87" viewBox="0 0 84 87" fill="none" xmlns="http://www.w3.org/2000/svg">
<path d="M83.8553 44.5068C83.8553 39.0197 82.7746 33.5864 80.6748 28.5171C78.575 23.4477 75.4973 18.8416 71.6173 14.9616C67.7374 11.0817 63.1313 8.00398 58.0619 5.90418C52.9925 3.80438 47.5592 2.72363 42.0722 2.72363V44.5068H83.8553Z" fill="#E69EFF"/>
<path d="M42.0722 2.72378C36.5852 2.72378 31.1518 3.80453 26.0825 5.90433C21.0131 8.00413 16.407 11.0818 12.5271 14.9618C8.64713 18.8417 5.56941 23.4478 3.46961 28.5172C1.36981 33.5866 0.289062 39.0199 0.289063 44.5069H42.0722L42.0722 2.72378Z" fill="#F4D4FF"/>
<path d="M0.289207 42.0001C0.289207 47.4871 1.36996 52.9204 3.46976 57.9898C5.56956 63.0591 8.64728 67.6653 12.5272 71.5452C16.4071 75.4251 21.0133 78.5029 26.0826 80.6027C31.152 82.7025 36.5853 83.7832 42.0723 83.7832V42.0001H0.289207Z" fill="#C41DFF"/>
<path d="M42.0723 83.7831C47.5594 83.7831 52.9927 82.7023 58.062 80.6025C63.1314 78.5027 67.7376 75.425 71.6175 71.5451C75.4974 67.6651 78.5751 63.059 80.6749 57.9896C82.7747 52.9203 83.8555 47.487 83.8555 41.9999L42.0723 41.9999L42.0723 83.7831Z" fill="#D252FF"/>
</svg>
