<svg width="63" height="55" viewBox="0 0 63 55" fill="none" xmlns="http://www.w3.org/2000/svg">
<path d="M12.0852 13.5433L24.2911 0.807182C24.8052 0.270867 25.4828 0 26.1605 0C27.7521 0 28.8089 1.36787 28.8089 2.78721C28.8089 3.46438 28.57 4.15238 28.0326 4.71307L19.5682 13.5433H12.0852ZM43.2425 13.5433H50.728L38.5196 0.807182C38.0055 0.270867 37.3278 0 36.6501 0C35.0585 0 34.0018 1.36787 34.0018 2.78721C34.0018 3.46438 34.2406 4.15238 34.7781 4.71307L43.2425 13.5433ZM52.8571 24.378L52.8156 24.489L43.4736 48.7559H19.3371L9.99768 24.4836L9.95614 24.378H52.8571ZM62.5626 18.9606H0.248047V24.378H1.91756C3.30665 24.378 4.56852 25.2014 5.17869 26.5016L15.8267 54.1733H46.984L57.6346 26.507C58.2421 25.2041 59.5092 24.378 60.8957 24.378H62.5626V18.9606ZM26.2124 32.504C26.2124 31.0088 25.0518 29.7953 23.616 29.7953C22.1802 29.7953 21.0196 31.0088 21.0196 32.504V40.6299C21.0196 42.1251 22.1802 43.3386 23.616 43.3386C25.0518 43.3386 26.2124 42.1251 26.2124 40.6299V32.504ZM34.0018 32.504C34.0018 31.0088 32.8412 29.7953 31.4053 29.7953C29.9695 29.7953 28.8089 31.0088 28.8089 32.504V40.6299C28.8089 42.1251 29.9695 43.3386 31.4053 43.3386C32.8412 43.3386 34.0018 42.1251 34.0018 40.6299V32.504ZM41.7911 32.504C41.7911 31.0088 40.6305 29.7953 39.1946 29.7953C37.7588 29.7953 36.5982 31.0088 36.5982 32.504V40.6299C36.5982 42.1251 37.7588 43.3386 39.1946 43.3386C40.6305 43.3386 41.7911 42.1251 41.7911 40.6299V32.504Z" fill="#E0C3B2"/>
</svg>
