<svg width="30" height="32" viewBox="0 0 30 32" fill="none" xmlns="http://www.w3.org/2000/svg">
<g clip-path="url(#clip0_229_1794)">
<path fill-rule="evenodd" clip-rule="evenodd" d="M19.7464 21.6955C17.7212 23.6525 15.0402 24.8432 12.1016 24.8432C5.79253 24.8432 0.669922 19.3514 0.669922 12.5876C0.669922 5.82383 5.79253 0.332031 12.1016 0.332031C18.4107 0.332031 23.5333 5.82383 23.5333 12.5876C23.5333 15.738 22.4226 18.6122 20.5972 20.7834L29.55 30.3815L28.6993 31.2936L19.7464 21.6955ZM12.1016 1.6221C17.7465 1.6221 22.33 6.53595 22.33 12.5876C22.33 18.6393 17.7465 23.5532 12.1016 23.5532C6.45677 23.5532 1.87326 18.6393 1.87326 12.5876C1.87326 6.53595 6.45677 1.6221 12.1016 1.6221Z" fill="#717171"/>
</g>
<defs>
<clipPath id="clip0_229_1794">
<rect x="0.669922" y="0.332031" width="28.8801" height="30.9615" rx="3.76697" fill="white"/>
</clipPath>
</defs>
</svg>
