<svg width="138" height="137" viewBox="0 0 138 137" fill="none" xmlns="http://www.w3.org/2000/svg">
<g clip-path="url(#clip0_350_9551)">
<path d="M20.4636 11.5902L17.9632 0.199219H120.448L117.947 11.5902H20.4636ZM12.2621 28.6766L9.76174 17.2857H128.678L126.172 28.6766H12.2621ZM69.7807 89.7094L69.8035 91.3212H35.978L35.7047 89.6581C34.9472 85.2214 34.6966 82.6869 39.0194 81.5136C43.815 80.2207 48.6106 79.0703 45.6718 74.1721C36.4052 59.6714 40.8363 51.4472 49.2827 51.4472C57.5639 51.4472 63.6125 59.3639 57.0001 74.1721C55.018 79.0361 59.8478 80.1866 64.9794 81.5136C69.5415 82.6983 69.7295 85.2441 69.7807 89.7094ZM107.53 62.8495H80.2832L80.1237 68.545H106.75L107.53 62.8495ZM109.085 51.4586H80.6078L80.4484 57.1483H108.311L109.085 51.4586ZM105.964 74.2405H79.9585L79.7934 79.9303H105.19L105.964 74.2405ZM104.409 85.6314H79.6282L79.4687 91.3212H103.623L104.409 85.6314ZM137.563 102.718H0.871094L12.2621 136.891H126.172L137.563 102.718ZM20.0933 91.3269L13.9137 45.7574H124.469L118.096 91.3269H129.606L137.563 34.3721H0.871094L8.59417 91.3269H20.0933Z" fill="#FEFEFE"/>
</g>
<defs>
<clipPath id="clip0_350_9551">
<rect width="136.692" height="136.692" fill="white" transform="translate(0.871094 0.199219)"/>
</clipPath>
</defs>
</svg>
