<svg width="137" height="138" viewBox="0 0 137 138" fill="none" xmlns="http://www.w3.org/2000/svg">
<g clip-path="url(#clip0_350_9558)">
<path d="M68.5528 12.3753C99.9577 12.3753 125.508 37.9253 125.508 69.3302C125.508 100.735 99.9577 126.285 68.5528 126.285C37.1479 126.285 11.598 100.735 11.598 69.3302C11.598 37.9253 37.1479 12.3753 68.5528 12.3753ZM68.5528 0.984375C30.8089 0.984375 0.207031 31.5862 0.207031 69.3302C0.207031 107.074 30.8089 137.676 68.5528 137.676C106.297 137.676 136.899 107.074 136.899 69.3302C136.899 31.5862 106.297 0.984375 68.5528 0.984375ZM89.6147 88.4328C87.308 88.2562 87.5245 86.1204 89.7058 85.7161C93.3168 85.0497 94.9058 83.1132 94.9058 81.3248C94.9058 79.8155 93.7781 78.4145 91.779 77.9588C89.3983 77.4177 89.8881 75.8002 91.8701 75.6464C95.0938 75.3902 96.6771 73.4708 96.6771 71.6311C96.6771 70.025 95.4697 68.4758 93.089 68.1569C90.6456 67.8322 91.4429 66.0666 93.1801 65.5313C94.6666 65.0756 97.0359 64.1074 97.0359 61.2312C97.0359 59.3175 95.612 56.783 90.5658 56.988C87.0688 57.1304 80.126 56.4242 76.3898 54.4706C78.9642 44.0536 78.3433 29.4618 71.5771 29.4618C67.0378 29.4618 66.1778 34.6048 64.8109 39.3377C59.9185 56.3388 50.1336 59.4542 40.0754 60.992V89.2643C59.1211 89.2643 64.2812 97.8076 78.5313 97.8076C87.6441 97.8076 92.3485 92.8696 92.3485 90.2155C92.3485 89.2643 91.574 88.5866 89.6147 88.4328Z" fill="#7F71A6"/>
</g>
<defs>
<clipPath id="clip0_350_9558">
<rect width="136.692" height="136.692" fill="white" transform="translate(0.207031 0.984375)"/>
</clipPath>
</defs>
</svg>
