<svg width="138" height="138" viewBox="0 0 138 138" fill="none" xmlns="http://www.w3.org/2000/svg">
<g clip-path="url(#clip0_350_9571)">
<path fill-rule="evenodd" clip-rule="evenodd" d="M126.172 125.91H12.2621C5.97425 125.91 0.871094 120.807 0.871094 114.519V46.173C0.871094 39.8852 5.97425 34.7821 12.2621 34.7821H21.5229L21.9672 36.3939C23.0721 39.9877 24.9174 43.3481 27.3779 46.173H15.1098C13.5378 46.173 12.2621 47.4488 12.2621 49.0208V80.3459H126.172V49.0208C126.172 47.4488 124.896 46.173 123.324 46.173H111.056C113.887 42.9323 115.914 38.9739 116.917 34.7821H126.172C132.46 34.7821 137.563 39.8852 137.563 46.173V114.519C137.563 120.807 132.46 125.91 126.172 125.91ZM12.2621 97.4324V111.671C12.2621 113.243 13.5378 114.519 15.1098 114.519H123.324C124.896 114.519 126.172 113.243 126.172 111.671V97.4324H12.2621ZM63.0145 68.955H46.4349C49.7611 61.2262 53.8106 52.8254 57.8259 46.173C54.1409 46.1673 48.8726 46.2129 46.4349 46.173C34.4687 45.9737 29.4225 35.887 29.3485 29.0866C29.2574 20.3497 36.2116 11.9603 46.4349 12.0001C54.9725 12.0343 62.462 16.9666 69.2169 25.1738C75.9717 16.9666 83.4613 12.0343 91.9988 12.0001C102.228 11.9603 109.176 20.3497 109.085 29.0866C109.011 35.887 103.965 45.9737 91.9988 46.173C89.5611 46.2129 84.2928 46.1673 80.6078 46.173C84.8168 52.9962 89.0998 61.9609 91.9988 68.955H75.4193C74.0466 61.904 71.4324 53.8505 69.2169 49.6814C67.007 53.8505 64.0796 63.3107 63.0145 68.955ZM48.4739 23.4025C42.0323 23.4025 39.8908 34.3264 49.1574 34.7821C50.5072 34.8504 61.8868 34.7821 61.8868 34.7821C55.9806 26.5806 53.2297 23.4025 48.4739 23.4025ZM89.8858 23.4025C96.3274 23.4025 98.4689 34.3264 89.2023 34.7821C87.8525 34.8504 76.547 34.7821 76.547 34.7821C82.4532 26.5806 85.1301 23.4025 89.8858 23.4025Z" fill="white"/>
</g>
<defs>
<clipPath id="clip0_350_9571">
<rect width="136.692" height="136.692" fill="white" transform="translate(0.871094 0.609375)"/>
</clipPath>
</defs>
</svg>
