<svg width="138" height="137" viewBox="0 0 138 137" fill="none" xmlns="http://www.w3.org/2000/svg">
<g clip-path="url(#clip0_350_9562)">
<path fill-rule="evenodd" clip-rule="evenodd" d="M40.3133 93.9661L49.0047 89.8482C59.211 85.2349 65.2425 87.889 73.7743 91.1696C83.5477 94.9343 87.2441 96.1987 91.2993 97.7991C98.5781 100.681 95.2178 110.198 87.9276 108.267C83.4965 107.094 71.9119 103.74 68.6768 102.965C65.0317 102.088 63.38 106.394 66.8372 107.624C73.1364 109.862 82.0043 112.123 86.7372 113.359C91.4702 114.601 94.1129 112.533 97.4504 109.879C102.611 105.778 114.355 93.3111 114.355 93.3111C119.15 88.7604 125.694 92.5422 125.694 97.4118C125.694 98.7218 125.222 100.111 124.122 101.439C110.863 117.346 106.694 122.181 98.1054 131.203C94.5571 134.934 90.4621 136.751 85.5526 136.751C83.0351 136.751 80.3013 136.272 77.334 135.327C66.9397 132.018 53.5724 127.848 40.3133 126.214V93.9661ZM34.6179 131.203H11.8359V85.6393H34.6179V131.203ZM40.3133 86.3854V76.6233C40.2792 67.7554 40.6665 62.6865 50.8728 60.3285C62.053 57.7485 75.4488 55.4361 70.1463 45.6513C54.4211 16.6499 65.6639 0.207031 82.5453 0.207031C99.1021 0.207031 110.624 16.0405 94.9444 45.6513C89.7957 55.3792 102.793 57.6915 114.218 60.3285C124.464 62.6922 124.806 67.7953 124.772 76.7258C124.772 77.4662 124.709 83.3952 124.772 86.2088C122.021 84.4489 116.559 83.0649 112.316 86.8125C109.269 89.5008 109.081 89.683 102.161 96.0905C92.1935 91.3575 76.7815 85.3659 66.7689 81.9771C61.6657 80.2456 55.1501 80.2228 49.8988 82.4042L40.3133 86.3854Z" fill="#7F71A6"/>
</g>
<defs>
<clipPath id="clip0_350_9562">
<rect width="136.692" height="136.692" fill="white" transform="translate(0.443359 0.0546875)"/>
</clipPath>
</defs>
</svg>
