<svg width="27" height="26" viewBox="0 0 27 26" fill="none" xmlns="http://www.w3.org/2000/svg">
<g clip-path="url(#clip0_356_4875)">
<path d="M23.3887 25.673L15.5445 17.8288C14.0706 18.7569 12.3333 19.3016 10.4633 19.3016C5.18463 19.3016 0.90625 15.0232 0.90625 9.74456C0.90625 4.46588 5.18463 0.1875 10.4633 0.1875C15.742 0.1875 20.0204 4.46588 20.0204 9.74456C20.0204 11.6146 19.4746 13.3529 18.5475 14.8257L26.3917 22.67L23.3887 25.673ZM10.4633 17.1778C14.5612 17.1778 17.8966 13.8435 17.8966 9.74456C17.8966 5.64564 14.5612 2.31129 10.4633 2.31129C6.36545 2.31129 3.03004 5.64564 3.03004 9.74456C3.03004 13.8435 6.36545 17.1778 10.4633 17.1778Z" fill="#785E98"/>
</g>
<defs>
<clipPath id="clip0_356_4875">
<rect width="25.4855" height="25.4855" fill="white" transform="translate(0.90625 0.1875)"/>
</clipPath>
</defs>
</svg>
