<svg width="1050" height="187" viewBox="0 0 1050 187" fill="none" xmlns="http://www.w3.org/2000/svg">
<path d="M1049.13 82.5469C1049.37 81.881 1049.03 81.1468 1048.36 80.9071L1037.51 77.0013C1036.84 76.7616 1036.11 77.1071 1035.87 77.773C1035.63 78.4389 1035.98 79.1731 1036.64 79.4128L1046.29 82.8846L1042.82 92.5306C1042.58 93.1965 1042.92 93.9306 1043.59 94.1703C1044.25 94.41 1044.99 94.0644 1045.23 93.3985L1049.13 82.5469ZM0.0500241 2.74487C1.98354 4.742 3.94254 6.72282 5.92665 8.68733L7.7299 6.86609C5.75851 4.91418 3.81221 2.9462 1.89138 0.962166L0.0500241 2.74487ZM18.1298 20.2787C22.2376 24.024 26.4402 27.706 30.7348 31.3245L32.3862 29.3645C28.1167 25.7671 23.9392 22.1072 19.8565 18.3848L18.1298 20.2787ZM43.8209 41.9346C48.1989 45.3516 52.6623 48.7078 57.2083 52.0034L58.7126 49.9283C54.1906 46.6502 49.7515 43.3122 45.3978 39.9142L43.8209 41.9346ZM70.9848 61.6359C75.5996 64.7485 80.2914 67.8029 85.0576 70.7989L86.4216 68.6291C81.6782 65.6474 77.0095 62.6081 72.4179 59.5111L70.9848 61.6359ZM99.3946 79.5052C104.206 82.328 109.087 85.0948 114.035 87.8057L115.266 85.558C110.34 82.8589 105.481 80.1045 100.691 77.2946L99.3946 79.5052ZM128.827 95.6432C133.801 98.1914 138.836 100.686 143.932 103.127L145.039 100.815C139.964 98.3841 134.948 95.8998 129.995 93.3622L128.827 95.6432ZM159.095 110.154C164.194 112.439 169.347 114.673 174.554 116.856L175.545 114.492C170.357 112.317 165.223 110.092 160.143 107.815L159.095 110.154ZM190.047 123.138C195.246 125.176 200.493 127.165 205.788 129.105L206.669 126.699C201.393 124.765 196.163 122.783 190.982 120.752L190.047 123.138ZM221.557 134.69C226.839 136.498 232.165 138.258 237.531 139.971L238.311 137.529C232.96 135.822 227.652 134.067 222.387 132.265L221.557 134.69ZM253.525 144.898C258.876 146.489 264.266 148.034 269.693 149.533L270.375 147.063C264.964 145.568 259.59 144.028 254.255 142.441L253.525 144.898ZM285.865 153.839C291.275 155.226 296.719 156.568 302.195 157.866L302.786 155.372C297.325 154.078 291.896 152.739 286.501 151.356L285.865 153.839ZM318.51 161.582C323.969 162.775 329.457 163.926 334.974 165.033L335.478 162.52C329.976 161.416 324.502 160.268 319.057 159.078L318.51 161.582ZM351.402 168.187C356.901 169.196 362.427 170.163 367.976 171.089L368.398 168.561C362.862 167.638 357.35 166.673 351.865 165.667L351.402 168.187ZM384.492 173.707C390.021 174.539 395.571 175.33 401.143 176.08L401.485 173.54C395.926 172.792 390.389 172.003 384.874 171.173L384.492 173.707ZM417.739 178.186C423.287 178.848 428.853 179.469 434.437 180.051L434.703 177.501C429.131 176.921 423.577 176.301 418.043 175.641L417.739 178.186ZM451.106 181.663C456.667 182.16 462.245 182.617 467.836 183.036L468.028 180.48C462.448 180.062 456.883 179.606 451.334 179.11L451.106 181.663ZM484.56 184.168C490.131 184.506 495.714 184.805 501.309 185.065L501.428 182.505C495.845 182.245 490.274 181.947 484.715 181.61L484.56 184.168ZM518.072 185.729C523.647 185.911 529.234 186.055 534.828 186.162L534.877 183.599C529.294 183.493 523.719 183.349 518.155 183.167L518.072 185.729ZM551.612 186.366C557.19 186.397 562.776 186.389 568.368 186.344L568.347 183.781C562.767 183.826 557.193 183.834 551.626 183.803L551.612 186.366ZM585.156 186.097C590.733 185.977 596.316 185.821 601.902 185.627L601.813 183.065C596.238 183.259 590.667 183.415 585.101 183.535L585.156 186.097ZM618.669 184.933C624.246 184.666 629.825 184.361 635.406 184.019L635.249 181.461C629.68 181.802 624.112 182.106 618.546 182.373L618.669 184.933ZM652.14 182.883C657.712 182.468 663.284 182.016 668.855 181.527L668.631 178.974C663.071 179.462 657.511 179.913 651.95 180.328L652.14 182.883ZM685.55 179.951C691.111 179.388 696.67 178.789 702.225 178.153L701.934 175.607C696.39 176.242 690.842 176.84 685.292 177.401L685.55 179.951ZM718.873 176.135C724.418 175.425 729.958 174.679 735.491 173.895L735.132 171.358C729.61 172.14 724.081 172.885 718.547 173.593L718.873 176.135ZM752.084 171.433C757.607 170.575 763.123 169.68 768.63 168.748L768.202 166.221C762.707 167.151 757.202 168.044 751.69 168.9L752.084 171.433ZM785.155 165.837C790.655 164.829 796.144 163.784 801.622 162.702L801.126 160.187C795.659 161.267 790.182 162.31 784.693 163.316L785.155 165.837ZM818.06 159.336C823.533 158.175 828.992 156.978 834.438 155.742L833.871 153.243C828.437 154.475 822.989 155.671 817.529 156.829L818.06 159.336ZM850.768 151.916C856.209 150.6 861.635 149.246 867.044 147.855L866.405 145.373C861.008 146.761 855.594 148.112 850.165 149.425L850.768 151.916ZM883.246 143.559C888.651 142.084 894.038 140.57 899.406 139.018L898.694 136.556C893.339 138.104 887.964 139.615 882.571 141.087L883.246 143.559ZM915.459 134.244C920.823 132.605 926.166 130.926 931.486 129.209L930.699 126.77C925.392 128.483 920.062 130.157 914.71 131.793L915.459 134.244ZM947.379 123.942C952.692 122.134 957.98 120.287 963.244 118.401L962.379 115.988C957.129 117.87 951.853 119.712 946.553 121.515L947.379 123.942ZM978.965 112.62C984.215 110.641 989.437 108.621 994.631 106.562L993.686 104.179C988.506 106.233 983.297 108.248 978.061 110.222L978.965 112.62ZM1010.16 100.25C1015.33 98.0931 1020.48 95.8956 1025.6 93.6574L1024.57 91.3095C1019.47 93.5415 1014.33 95.7331 1009.17 97.8843L1010.16 100.25ZM1040.9 86.7954C1043.43 85.6313 1045.96 84.4569 1048.47 83.2723L1047.38 80.9534C1044.87 82.1346 1042.35 83.3057 1039.83 84.4665L1040.9 86.7954Z" fill="#AC9CD7"/>
</svg>
