<svg width="33" height="33" viewBox="0 0 33 33" fill="none" xmlns="http://www.w3.org/2000/svg">
<g clip-path="url(#clip0_311_323)">
<path d="M32.8739 15.9242C32.8739 24.7184 25.6901 31.8474 16.8268 31.8474C14.0131 31.8474 11.3697 31.1283 9.06987 29.8661L0.185547 32.6893L3.0821 24.146C1.62093 21.7467 0.779385 18.9326 0.779385 15.9242C0.779385 7.12994 7.96391 0.000976562 16.8268 0.000976562C25.6908 0.000976562 32.8739 7.12994 32.8739 15.9242ZM16.8268 2.53686C9.38695 2.53686 3.33525 8.54244 3.33525 15.9242C3.33525 18.8534 4.29011 21.5662 5.90528 23.773L4.21965 28.7449L9.40438 27.0971C11.5346 28.4958 14.0864 29.3115 16.8272 29.3115C24.2659 29.3115 30.3187 23.3067 30.3187 15.9249C30.3187 8.54316 24.2663 2.53686 16.8268 2.53686ZM24.9302 19.5915C24.8311 19.4291 24.5692 19.331 24.1762 19.136C23.7825 18.941 21.8481 17.9963 21.4885 17.8666C21.1279 17.7366 20.8649 17.6712 20.603 18.0616C20.3412 18.4524 19.5872 19.331 19.3572 19.5915C19.1277 19.8526 18.8985 19.8853 18.5048 19.6899C18.1118 19.4948 16.8446 19.0822 15.342 17.7529C14.1729 16.7185 13.3833 15.4415 13.1537 15.0503C12.9246 14.6599 13.1298 14.4489 13.3263 14.2545C13.5035 14.0795 13.72 13.7987 13.9165 13.571C14.1137 13.3429 14.1791 13.1805 14.3094 12.9198C14.4413 12.6593 14.3755 12.4316 14.2768 12.2359C14.1787 12.0408 13.3913 10.1202 13.0637 9.33858C12.736 8.55769 12.4088 8.68772 12.1789 8.68772C11.9497 8.68772 11.6871 8.65503 11.4249 8.65503C11.1626 8.65503 10.7362 8.75273 10.3756 9.14317C10.0153 9.53398 8.99941 10.4783 8.99941 12.3986C8.99941 14.3192 10.4083 16.1748 10.6055 16.4349C10.802 16.6949 13.3259 20.7642 17.3248 22.3271C21.324 23.8892 21.324 23.368 22.0453 23.3027C22.7659 23.2377 24.372 22.3587 24.7011 21.4478C25.0279 20.5354 25.0279 19.7542 24.9302 19.5915Z" fill="#8472B6"/>
</g>
<defs>
<clipPath id="clip0_311_323">
<rect width="32.6883" height="32.6883" fill="white" transform="translate(0.1875)"/>
</clipPath>
</defs>
</svg>
