<svg width="70" height="70" viewBox="0 0 70 70" fill="none" xmlns="http://www.w3.org/2000/svg">
<g clip-path="url(#clip0_233_1310)">
<path fill-rule="evenodd" clip-rule="evenodd" d="M53.6212 66.4382C54.5603 67.1032 55.7707 67.2695 56.8499 66.8611C57.9291 66.4499 58.7224 65.5282 58.9616 64.4111C61.4962 52.4995 67.6445 22.3499 69.9516 11.5145C70.1266 10.6978 69.8349 9.84904 69.1932 9.30362C68.5516 8.75821 67.662 8.60071 66.8687 8.89529C54.6391 13.422 16.9762 27.5532 1.58199 33.2495C0.60491 33.6111 -0.0309229 34.5503 0.00116041 35.5799C0.0361604 36.6124 0.730327 37.5078 1.73074 37.8082C8.63449 39.8732 17.6966 42.7461 17.6966 42.7461C17.6966 42.7461 21.9316 55.5357 24.1395 62.0399C24.4166 62.8565 25.0553 63.4982 25.8982 63.7199C26.7382 63.9386 27.6366 63.7082 28.2637 63.1161C31.8103 59.7678 37.2937 54.5907 37.2937 54.5907C37.2937 54.5907 47.712 62.2295 53.6212 66.4382ZM21.5087 41.1303L26.4057 57.2828L27.4937 47.054C27.4937 47.054 46.4141 29.9886 57.1999 20.2615C57.5149 19.9757 57.5587 19.4974 57.2962 19.162C57.0366 18.8265 56.5582 18.7478 56.1995 18.9753C43.6987 26.9582 21.5087 41.1303 21.5087 41.1303Z" fill="#7F57AF"/>
</g>
<defs>
<clipPath id="clip0_233_1310">
<rect width="70" height="70" fill="white"/>
</clipPath>
</defs>
</svg>
