<svg width="71" height="70" viewBox="0 0 71 70" fill="none" xmlns="http://www.w3.org/2000/svg">
<g clip-path="url(#clip0_233_1314)">
<path d="M29.7311 27.2213L45.2857 34.9854L29.7311 42.7788V27.2213ZM70.5645 14.5833V55.4167C70.5645 63.4696 64.037 70 55.9811 70H15.1478C7.09487 70 0.564453 63.4696 0.564453 55.4167V14.5833C0.564453 6.53042 7.09487 0 15.1478 0H55.9811C64.037 0 70.5645 6.53042 70.5645 14.5833ZM58.8978 35C58.8395 22.9746 57.9557 18.375 50.3724 17.8588C43.3636 17.3804 27.7565 17.3833 20.7595 17.8588C13.182 18.375 12.2895 22.9542 12.2311 35C12.2895 47.0254 13.1732 51.625 20.7565 52.1413C27.7536 52.6167 43.3607 52.6196 50.3695 52.1413C57.947 51.625 58.8395 47.0458 58.8978 35Z" fill="#7F57AF"/>
</g>
<defs>
<clipPath id="clip0_233_1314">
<rect width="70" height="70" fill="white" transform="translate(0.564453)"/>
</clipPath>
</defs>
</svg>
