<svg width="71" height="70" viewBox="0 0 71 70" fill="none" xmlns="http://www.w3.org/2000/svg">
<g clip-path="url(#clip0_233_1312)">
<path d="M35.7832 6.30875C45.1282 6.30875 46.2365 6.34375 49.929 6.51292C59.414 6.94458 63.8445 11.445 64.2761 20.86C64.4453 24.5496 64.4774 25.6579 64.4774 35.0029C64.4774 44.3508 64.4424 45.4563 64.2761 49.1458C63.8415 58.5521 59.4228 63.0612 49.929 63.4929C46.2365 63.6621 45.134 63.6971 35.7832 63.6971C26.4382 63.6971 25.3299 63.6621 21.6403 63.4929C12.132 63.0583 7.72487 58.5375 7.2932 49.1429C7.12404 45.4533 7.08904 44.3479 7.08904 35C7.08904 25.655 7.12695 24.5496 7.2932 20.8571C7.72779 11.445 12.1465 6.94167 21.6403 6.51C25.3328 6.34375 26.4382 6.30875 35.7832 6.30875ZM35.7832 0C26.2778 0 25.0878 0.0408333 21.3545 0.21C8.64362 0.793333 1.57945 7.84583 0.99612 20.5683C0.824036 24.3046 0.783203 25.4946 0.783203 35C0.783203 44.5054 0.824036 45.6983 0.993203 49.4317C1.57654 62.1425 8.62904 69.2067 21.3515 69.79C25.0878 69.9592 26.2778 70 35.7832 70C45.2886 70 46.4815 69.9592 50.2149 69.79C62.914 69.2067 69.9957 62.1542 70.5703 49.4317C70.7424 45.6983 70.7832 44.5054 70.7832 35C70.7832 25.4946 70.7424 24.3046 70.5732 20.5713C70.0015 7.87208 62.9403 0.79625 50.2178 0.212917C46.4815 0.0408333 45.2886 0 35.7832 0V0ZM35.7832 17.0275C25.8578 17.0275 17.8107 25.0746 17.8107 35C17.8107 44.9254 25.8578 52.9754 35.7832 52.9754C45.7086 52.9754 53.7557 44.9283 53.7557 35C53.7557 25.0746 45.7086 17.0275 35.7832 17.0275ZM35.7832 46.6667C29.3403 46.6667 24.1165 41.4458 24.1165 35C24.1165 28.5571 29.3403 23.3333 35.7832 23.3333C42.2261 23.3333 47.4499 28.5571 47.4499 35C47.4499 41.4458 42.2261 46.6667 35.7832 46.6667ZM54.4674 12.1188C52.1457 12.1188 50.2645 14 50.2645 16.3188C50.2645 18.6375 52.1457 20.5187 54.4674 20.5187C56.7861 20.5187 58.6645 18.6375 58.6645 16.3188C58.6645 14 56.7861 12.1188 54.4674 12.1188Z" fill="#7F57AF"/>
</g>
<defs>
<clipPath id="clip0_233_1312">
<rect width="70" height="70" fill="white" transform="translate(0.783203)"/>
</clipPath>
</defs>
</svg>
